HIERARCHY
ROOT Hips
{
	OFFSET 0.000000 0.000000 0.000000
	CHANNELS 6 Xposition Yposition Zposition Zrotation Yrotation Xrotation 
	JOINT LeftUpLeg_virtual
	{
		OFFSET 0.000000 0.000000 0.000000
		CHANNELS 3 Zrotation Yrotation Xrotation
		JOINT LeftUpLeg
		{
			OFFSET 8.479694 -4.795517 -0.379053
			CHANNELS 3 Zrotation Yrotation Xrotation
			JOINT LeftLeg
			{
				OFFSET 0.485052 -32.551468 0.112863
				CHANNELS 3 Zrotation Yrotation Xrotation
				JOINT LeftFoot
				{
					OFFSET 0.438033 -32.635670 -3.012641
					CHANNELS 3 Zrotation Yrotation Xrotation
					JOINT LeftToeBase
					{
						OFFSET 0.970169 -13.225353 11.864223
						CHANNELS 3 Zrotation Yrotation Xrotation
						End Site
						{
							OFFSET 0.000000 0.000000 0.000000
						}
					}
				}
			}
		}
	}
	JOINT RightUpLeg_virtual
	{
		OFFSET 0.000000 0.000000 0.000000
		CHANNELS 3 Zrotation Yrotation Xrotation
		JOINT RightUpLeg
		{
			OFFSET -8.479694 -4.795517 -0.379053
			CHANNELS 3 Zrotation Yrotation Xrotation
			JOINT RightLeg
			{
				OFFSET -0.484100 -32.551483 0.112903
				CHANNELS 3 Zrotation Yrotation Xrotation
				JOINT RightFoot
				{
					OFFSET -0.438985 -32.635651 -3.012681
					CHANNELS 3 Zrotation Yrotation Xrotation
					JOINT RightToeBase
					{
						OFFSET -0.970169 -13.225354 11.864223
						CHANNELS 3 Zrotation Yrotation Xrotation
						End Site
						{
							OFFSET 0.000000 0.000000 0.000000
						}
					}
				}
			}
		}
	}
	JOINT Spine_virtual
	{
		OFFSET 0.000000 0.000000 0.000000
		CHANNELS 3 Zrotation Yrotation Xrotation
		JOINT Spine
		{
			OFFSET 0.000000 7.722015 1.166203
			CHANNELS 3 Zrotation Yrotation Xrotation
			JOINT Spine1
			{
				OFFSET 0.000000 12.024086 0.248766
				CHANNELS 3 Zrotation Yrotation Xrotation
				JOINT Spine2
				{
					OFFSET -0.000000 11.503036 -0.491240
					CHANNELS 3 Zrotation Yrotation Xrotation
					JOINT Neck_virtual
					{
						OFFSET 0.000000 0.000000 0.000000
						CHANNELS 3 Zrotation Yrotation Xrotation
						JOINT Neck
						{
							OFFSET 0.000000 18.430687 -3.123054
							CHANNELS 3 Zrotation Yrotation Xrotation
							JOINT Head
							{
								OFFSET -0.000000 9.051071 1.034021
								CHANNELS 3 Zrotation Yrotation Xrotation
								End Site
								{
									OFFSET 0.000000 0.000000 0.000000
								}
							}
						}
					}
					JOINT LeftShoulder_virtual
					{
						OFFSET 0.000000 0.000000 0.000000
						CHANNELS 3 Zrotation Yrotation Xrotation
						JOINT LeftShoulder
						{
							OFFSET 6.197824 13.665230 -4.064723
							CHANNELS 3 Zrotation Yrotation Xrotation
							JOINT LeftArm
							{
								OFFSET 7.778132 -0.187073 -1.709282
								CHANNELS 3 Zrotation Yrotation Xrotation
								JOINT LeftForeArm
								{
									OFFSET 21.954697 0.000000 -2.041093
									CHANNELS 3 Zrotation Yrotation Xrotation
									JOINT LeftHand
									{
										OFFSET 22.992908 0.000000 -0.870901
										CHANNELS 3 Zrotation Yrotation Xrotation
										End Site
										{
											OFFSET 0.000000 0.000000 0.000000
										}
									}
								}
							}
						}
					}
					JOINT RightShoulder_virtual
					{
						OFFSET 0.000000 0.000000 0.000000
						CHANNELS 3 Zrotation Yrotation Xrotation
						JOINT RightShoulder
						{
							OFFSET -6.197824 13.665230 -4.064723
							CHANNELS 3 Zrotation Yrotation Xrotation
							JOINT RightArm
							{
								OFFSET -7.778132 -0.187073 -1.709282
								CHANNELS 3 Zrotation Yrotation Xrotation
								JOINT RightForeArm
								{
									OFFSET -21.954697 0.000000 -2.041093
									CHANNELS 3 Zrotation Yrotation Xrotation
									JOINT RightHand
									{
										OFFSET -22.992908 0.000000 -0.870901
										CHANNELS 3 Zrotation Yrotation Xrotation
										End Site
										{
											OFFSET 0.000000 0.000000 0.000000
										}
									}
								}
							}
						}
					}
				}
			}
		}
	}
}
MOTION
Frames: 9
Frame Time: 0.033333
11.652413 80.972740 -15.984579 -179.692606 -8.405108 -179.996795 -1.996937 -0.017720 15.793785 3.708687 -5.509170 -20.538527 3.154186 4.939672 24.070125 1.386063 -6.558731 -13.617674 0.000000 0.000000 0.000000 2.251929 -0.989306 17.183429 -4.314013 6.203324 -23.931007 0.254203 7.409938 31.234264 12.709273 5.857008 -14.703306 0.000000 0.000000 0.000000 3.596226 2.381057 2.941162 1.454609 -1.827854 -8.326901 -0.255927 -2.219318 7.973542 -0.059055 -0.029976 0.001426 -0.703864 -0.718261 8.193637 -2.679449 2.525084 -4.713167 0.000000 0.000000 0.000000 1.127350 0.006538 5.585557 -12.166504 -4.996286 4.793515 -54.383493 -10.939646 4.019356 3.747976 -25.429428 3.698784 0.000000 0.000000 0.000000 -3.706552 1.448631 4.814483 31.476257 1.424459 9.635852 45.367841 10.599380 4.450502 -1.766413 25.230469 -2.386759 0.000000 0.000000 0.000000 
11.634372 80.961998 -15.908848 -179.628279 -8.715892 179.877403 -2.018735 0.220393 15.109874 3.515433 -5.187325 -19.641631 3.116529 5.276755 23.662369 1.490979 -6.427233 -13.743739 0.000000 0.000000 0.000000 2.005617 -0.989528 17.226937 -4.002973 6.393615 -23.826225 0.318589 7.558406 31.515217 12.962912 6.144588 -15.014547 0.000000 0.000000 0.000000 3.690919 2.193961 2.917308 1.426481 -1.826634 -8.262529 -0.377816 -2.254426 8.003778 -0.058702 -0.056853 0.046141 -0.711448 -0.775920 8.088004 -2.714530 2.472892 -4.775207 0.000000 0.000000 0.000000 1.163811 -0.097240 5.451171 -12.156242 -5.178170 4.822107 -54.130987 -12.095484 3.810898 3.728853 -26.105313 3.593941 0.000000 0.000000 0.000000 -3.740945 1.440365 4.686751 31.454824 1.500761 9.686849 45.175363 11.196231 4.576707 -1.731567 25.479426 -2.365419 0.000000 0.000000 0.000000 
11.624396 80.963959 -15.809612 -179.644043 -8.744365 179.961975 -2.025620 0.164730 15.479072 3.539309 -5.190312 -20.215869 3.138127 5.313681 23.694594 1.487748 -6.417878 -13.641629 0.000000 0.000000 0.000000 2.061779 -1.004556 17.097504 -4.133201 6.365078 -23.897531 0.372847 7.496898 31.573393 12.960924 6.135591 -15.048234 0.000000 0.000000 0.000000 3.665044 2.278562 2.762317 1.331415 -1.849649 -8.337712 -0.374517 -2.300118 7.963786 -0.028642 -0.095248 0.040174 -0.782337 -0.786857 8.058601 -2.716785 2.528708 -4.753390 0.000000 0.000000 0.000000 1.073508 -0.092020 5.411612 -12.212017 -5.477769 4.744763 -53.595255 -13.906950 3.837454 3.671075 -27.144224 3.451137 0.000000 0.000000 0.000000 -3.807027 1.406599 4.677512 31.546543 1.858441 9.763891 44.855331 12.105618 5.030555 -1.729174 25.708240 -2.329086 0.000000 0.000000 0.000000 
11.617002 80.971123 -15.685289 -179.683986 -8.772421 179.951265 -2.034912 0.080941 15.080544 3.457329 -5.214603 -19.845721 3.146789 5.367473 23.659268 1.483623 -6.406142 -13.647814 0.000000 0.000000 0.000000 2.085111 -1.151654 16.999723 -4.251661 6.407738 -23.934339 0.435373 7.578627 31.697419 12.924822 6.147380 -15.047475 0.000000 0.000000 0.000000 3.660249 2.180961 2.739469 1.182265 -1.807457 -8.441457 -0.408125 -2.286883 7.902624 -0.068848 -0.081705 0.026897 -0.766893 -0.628021 8.063443 -2.729784 2.647232 -4.625979 0.000000 0.000000 0.000000 1.067012 -0.088959 5.431450 -12.305370 -5.774428 4.670693 -52.920114 -16.002991 3.739077 3.471536 -28.434952 3.413555 0.000000 0.000000 0.000000 -3.763294 1.352501 4.729487 31.751835 2.233863 9.780707 44.284119 13.209576 5.356936 -1.622839 25.954181 -2.186207 0.000000 0.000000 0.000000 
11.615280 80.989166 -15.566031 -179.644781 -8.900274 179.941539 -2.021202 -0.055092 15.121089 3.464806 -5.268865 -19.964423 3.178778 5.386936 23.633190 1.474795 -6.398605 -13.559368 0.000000 0.000000 0.000000 2.224987 -1.352929 16.911806 -4.410823 6.357561 -23.952606 0.498517 7.599787 31.750264 12.926782 6.213822 -15.015394 0.000000 0.000000 0.000000 3.708987 1.965949 2.653054 1.048328 -1.785780 -8.535287 -0.398989 -2.314201 7.892409 -0.028570 -0.115322 -0.009814 -0.849113 -0.687701 8.045208 -2.759040 2.748766 -4.522407 0.000000 0.000000 0.000000 1.012577 -0.049496 5.329367 -12.430347 -5.902814 4.635304 -52.177004 -17.830725 3.513970 3.315195 -30.034907 3.332773 0.000000 0.000000 0.000000 -3.830473 1.482465 4.651983 31.886038 2.691220 9.885122 43.782247 14.148045 5.665627 -1.504765 26.322716 -1.982309 0.000000 0.000000 0.000000 
11.619259 81.003738 -15.456866 -179.600070 -9.050253 179.875013 -1.995614 -0.075327 15.210859 3.490555 -5.370698 -20.111342 3.200527 5.375379 23.628643 1.455616 -6.414605 -13.454656 0.000000 0.000000 0.000000 2.188769 -1.430923 16.842871 -4.303190 6.256209 -23.894464 0.525415 7.581782 31.746870 12.892375 6.213810 -14.921511 0.000000 0.000000 0.000000 3.764236 1.995774 2.529385 0.914652 -1.829001 -8.470777 -0.398178 -2.326040 7.818582 -0.087437 -0.103795 -0.003365 -0.805105 -0.763156 8.051644 -2.696780 2.884498 -4.356171 0.000000 0.000000 0.000000 1.041319 -0.037288 5.298999 -12.515632 -6.004793 4.497841 -51.482817 -19.449894 3.342357 2.982200 -31.606523 3.458123 0.000000 0.000000 0.000000 -3.778201 1.421342 4.633183 32.079264 3.033722 9.997905 43.239906 14.998219 6.138553 -1.447360 26.799979 -1.794691 0.000000 0.000000 0.000000 
11.626361 81.022949 -15.335924 -179.650381 -9.181589 179.910065 -2.038542 -0.039542 15.505566 3.557765 -5.484349 -20.647288 3.204600 5.300744 23.677114 1.435006 -6.433185 -13.220906 0.000000 0.000000 0.000000 2.146484 -1.468511 16.708553 -4.336611 6.236180 -23.925162 0.609452 7.619875 31.786324 12.814930 6.183452 -14.829854 0.000000 0.000000 0.000000 3.715257 1.994922 2.519461 0.799945 -1.805753 -8.649881 -0.376882 -2.346872 7.774342 -0.040600 -0.096729 0.038817 -0.787688 -0.775915 8.062062 -2.707595 2.886016 -4.107707 0.000000 0.000000 0.000000 1.019143 -0.061422 5.285340 -12.680954 -6.137538 4.409134 -50.819217 -20.607102 3.325414 2.868581 -33.194863 3.279042 0.000000 0.000000 0.000000 -3.788117 1.367664 4.642623 32.243602 3.333888 10.132172 42.841330 15.774155 6.601981 -1.386994 27.368703 -1.684228 0.000000 0.000000 0.000000 
11.622554 81.046410 -15.226843 -179.623511 -9.384493 179.920829 -2.057321 -0.073884 15.403183 3.584085 -5.595828 -20.695029 3.226356 5.248762 23.686002 1.418547 -6.475256 -13.122100 0.000000 0.000000 0.000000 2.165372 -1.486560 16.596588 -4.306302 6.117023 -23.886654 0.652720 7.614895 31.776451 12.768779 6.177297 -14.725958 0.000000 0.000000 0.000000 3.700795 1.874099 2.424685 0.726789 -1.755039 -8.684278 -0.353174 -2.271937 7.743704 -0.061179 -0.058406 0.052741 -0.727410 -0.766922 8.061805 -2.627900 2.927177 -3.870177 0.000000 0.000000 0.000000 1.070216 -0.084483 5.255642 -12.802662 -6.237811 4.359682 -50.252072 -21.551424 3.187879 2.671482 -34.503510 3.161031 0.000000 0.000000 0.000000 -3.752489 1.250668 4.597616 32.307355 3.660021 10.118610 42.581838 16.083128 7.036013 -1.345063 27.926395 -1.521423 0.000000 0.000000 0.000000 
11.607721 81.062965 -15.121106 -179.581793 -9.516188 179.918999 -2.041583 -0.038155 15.280501 3.594964 -5.694157 -20.679383 3.253237 5.231336 23.713607 1.406741 -6.518095 -13.050172 0.000000 0.000000 0.000000 2.243652 -1.451252 16.482380 -4.349311 6.031026 -23.831954 0.688830 7.553503 31.794449 12.731924 6.168715 -14.700761 0.000000 0.000000 0.000000 3.719733 1.893365 2.337684 0.692944 -1.765741 -8.660427 -0.353472 -2.426638 7.682566 -0.011586 -0.032721 0.035319 -0.763626 -0.763905 8.082141 -2.583962 3.047925 -3.663985 0.000000 0.000000 0.000000 1.013758 -0.105107 5.183099 -12.904230 -6.152162 4.268094 -50.048358 -22.099685 3.411430 2.509548 -35.324755 3.090584 0.000000 0.000000 0.000000 -3.801906 1.447905 4.470445 32.288490 3.768956 10.101288 42.635263 16.258755 7.427107 -1.251670 28.425294 -1.375062 0.000000 0.000000 0.000000 
